Coordinates
version=1
nRows=17
nColumns=40
inDegrees=yes

Units are S.I. units (second, meters, Newtons, ...)
Angles are in degrees.

endheader
time	pelvis_tilt	pelvis_list	pelvis_rotation	pelvis_tx	pelvis_ty	pelvis_tz	hip_flexion_r	hip_adduction_r	hip_rotation_r	knee_angle_r	knee_angle_r_beta	ankle_angle_r	subtalar_angle_r	mtp_angle_r	hip_flexion_l	hip_adduction_l	hip_rotation_l	knee_angle_l	knee_angle_l_beta	ankle_angle_l	subtalar_angle_l	mtp_angle_l	lumbar_extension	lumbar_bending	lumbar_rotation	arm_flex_r	arm_add_r	arm_rot_r	elbow_flex_r	pro_sup_r	wrist_flex_r	wrist_dev_r	arm_flex_l	arm_add_l	arm_rot_l	elbow_flex_l	pro_sup_l	wrist_flex_l	wrist_dev_l
     22.87000000	     -2.89993397	     -4.66784282	      8.60683832	      0.95437197	      0.92241864	      0.54374753	      3.03018128	      3.60264875	    -13.89337057	     16.34397933	     16.34397933	     18.22170729	     -2.14733864	     -2.97474657	     27.60198651	     -9.76425575	      3.04499482	     18.34405870	     18.34405870	     -3.12299859	     -0.08659987	     -1.23361691	     -8.15729843	      4.44965965	      3.36412353	     68.49975971	    -18.05270538	     -3.64269103	     88.44862237	     44.50278596	      0.00000000	      0.00000000	    -21.02220812	     -9.39688061	     28.35998970	     33.67837844	     42.29337252	      0.00000000	      0.00000000
     22.89185714	     -2.82061248	     -4.74314853	      8.55330802	      0.95568720	      0.92155468	      0.53964842	      2.48894968	      3.48941876	    -13.73788475	     16.30293043	     16.30293043	     18.55378629	     -2.14983243	     -3.05625608	     27.06992962	     -9.60453274	      3.27266967	     18.69186537	     18.69186537	     -1.76469666	     -0.48433705	     -1.71371298	     -8.06733061	      4.29122896	      3.21801540	     68.35521838	    -17.68086602	     -3.55405038	     89.23688979	     44.47923683	      0.00000000	      0.00000000	    -20.10050946	     -9.76197328	     28.20665692	     33.70390047	     42.34179493	      0.00000000	      0.00000000
     22.91371429	     -2.77014852	     -4.79174249	      8.52183945	      0.95712713	      0.92091002	      0.53515856	      1.89172327	      3.34090959	    -13.62630567	     16.12020271	     16.12020271	     18.77938856	     -2.14764601	     -3.05659663	     26.63542042	     -9.37273619	      3.47859376	     19.11614689	     19.11614689	     -0.47659344	     -0.98209446	     -2.12172110	     -7.97015195	      4.12243643	      3.01611523	     67.83315116	    -17.27407970	     -3.49302128	     90.46734618	     44.44182078	      0.00000000	      0.00000000	    -19.14226828	    -10.14921055	     27.97954529	     33.66169736	     42.40331515	      0.00000000	      0.00000000
     22.93557143	     -2.80657842	     -4.75715970	      8.51048583	      0.95844216	      0.92040930	      0.53028930	      1.39624733	      3.05938828	    -13.54591124	     15.96117822	     15.96117822	     18.96468381	     -2.19131340	     -3.04084423	     26.30968884	     -9.02173469	      3.56165800	     19.49202332	     19.49202332	      0.65980188	     -1.42754850	     -2.51772405	     -7.79282295	      3.91856608	      2.86314756	     67.21787412	    -16.90846064	     -3.39615264	     91.19362040	     44.41635662	      0.00000000	      0.00000000	    -18.00638587	    -10.66406474	     27.71478378	     33.70769035	     42.46183154	      0.00000000	      0.00000000
     22.95742857	     -2.82643588	     -4.65451839	      8.43717178	      0.95973368	      0.92019237	      0.52521435	      0.86178973	      2.68978701	    -13.40741572	     15.77547495	     15.77547495	     19.07501273	     -2.19609652	     -2.99070270	     26.04381130	     -8.60869228	      3.60674632	     20.00447762	     20.00447762	      1.69039008	     -1.94331734	     -2.89554256	     -7.67859388	      3.65367355	      2.73236561	     66.44535374	    -16.55697888	     -3.30254113	     91.85683012	     44.39193064	      0.00000000	      0.00000000	    -16.80411436	    -11.20833630	     27.41152533	     33.75962677	     42.52444795	      0.00000000	      0.00000000
     22.97928571	     -2.86362600	     -4.66202829	      8.37008044	      0.96101924	      0.92032021	      0.51988342	      0.13339499	      2.47490050	    -13.36955958	     15.12112843	     15.12112843	     18.96948426	     -2.03382494	     -2.70238824	     25.93855481	     -8.17929450	      4.10434094	     20.70080717	     20.70080717	      2.78221758	     -3.22657164	     -2.35812132	     -7.77938536	      3.48569850	      3.75169106	     64.18715473	    -17.65599016	     -4.63058435	     96.96504398	     44.29253247	      0.00000000	      0.00000000	    -14.80988068	    -11.42062377	     25.76499086	     32.86583092	     42.85863787	      0.00000000	      0.00000000
     23.00114286	     -2.90722696	     -4.42186812	      8.12868053	      0.96210106	      0.92056959	      0.51446168	     -0.28036094	      1.87500564	    -13.17957918	     15.11148627	     15.11148627	     18.94363202	     -2.03219407	     -2.64340670	     25.72080559	     -7.67398221	      3.83545872	     21.24937490	     21.24937490	      3.55200555	     -3.65288545	     -2.69302679	     -7.70337028	      3.14254693	      3.75934646	     63.29698126	    -17.34585561	     -4.44816148	     96.86352754	     44.28948010	      0.00000000	      0.00000000	    -13.46699334	    -11.96903365	     25.44015468	     32.98199339	     42.92659328	      0.00000000	      0.00000000
     23.02300000	     -3.00885359	     -4.29287958	      7.83226684	      0.96310731	      0.92087337	      0.50897771	     -0.66258662	      1.36783003	    -13.10202635	     14.97411418	     14.97411418	     18.81430519	     -1.82037426	     -2.50170808	     25.70343099	     -7.22037451	      3.83425670	     22.00851426	     22.00851426	      4.37993413	     -4.50188220	     -2.53518085	     -7.57292354	      2.84722471	      4.45999184	     61.64390919	    -17.96514947	     -5.11498335	     97.47231801	     44.30738633	      0.00000000	      0.00000000	    -11.66785958	    -12.18005757	     24.03245982	     32.38739930	     43.20087462	      0.00000000	      0.00000000
     23.04485714	     -3.09260267	     -4.11583260	      7.45122772	      0.96397175	      0.92144124	      0.50356759	     -0.97130747	      0.78352135	    -12.90098019	     14.99083528	     14.99083528	     18.74420856	     -1.59405086	     -2.14010911	     25.57640905	     -6.79182407	      3.57587404	     22.64108761	     22.64108761	      5.42586466	     -4.89206718	     -1.69966026	     -7.59370969	      2.54957483	      4.49490009	     60.35444592	    -17.54660408	     -5.30731308	     97.95865129	     44.48701114	      0.00000000	      0.00000000	     -9.89888565	    -11.03488468	     16.34081051	     30.44982649	     44.65762778	      0.00000000	      0.00000000
     23.06671429	     -3.14811595	     -4.01406144	      7.03519523	      0.96471946	      0.92204045	      0.49822294	     -1.25769283	      0.27089423	    -12.68783878	     15.01700618	     15.01700618	     18.49596772	     -1.46162887	     -2.04549137	     25.38981486	     -6.46281889	      3.30721110	     23.13952101	     23.13952101	      5.96952332	     -5.40291907	     -1.96999942	     -7.58350153	      2.39974725	      4.46945350	     59.08701932	    -17.04194701	     -5.09366723	     97.62368127	     44.48854816	      0.00000000	      0.00000000	     -8.48393586	    -11.48945922	     16.14140395	     30.82688878	     44.70920904	      0.00000000	      0.00000000
     23.08857143	     -3.22123389	     -3.97645884	      6.57515331	      0.96532856	      0.92270145	      0.49305319	     -1.43817364	     -0.18958250	    -12.44518720	     15.13623276	     15.13623276	     18.18873037	     -1.26777148	     -1.95319708	     25.18495881	     -6.21396232	      3.04249971	     23.53980297	     23.53980297	      6.47655127	     -5.90996570	     -2.18011559	     -7.58617085	      2.28735123	      4.43033756	     57.61031687	    -16.61070747	     -4.98418846	     97.17235646	     44.49608864	      0.00000000	      0.00000000	     -7.04235240	    -11.87245516	     15.90343452	     31.18951475	     44.76649399	      0.00000000	      0.00000000
     23.11042857	     -3.42368068	     -3.91198782	      6.06563265	      0.96578814	      0.92329927	      0.48792448	     -1.29548829	     -0.77284417	    -12.31249867	     15.55631652	     15.55631652	     17.92048627	     -0.92474447	     -1.86095722	     25.01406573	     -5.90151543	      2.83474660	     23.75370858	     23.75370858	      6.89054142	     -6.57468585	     -2.19979135	     -7.37358543	      2.06602500	      4.76633826	     55.49104653	    -16.56200026	     -5.80013923	     96.24963399	     44.55460112	      0.00000000	      0.00000000	     -5.32644963	    -12.09186306	     15.17647463	     31.30852270	     44.90556525	      0.00000000	      0.00000000
     23.13228571	     -3.51945925	     -3.91571487	      5.53420643	      0.96616941	      0.92407120	      0.48301906	     -1.17427264	     -1.26796906	    -12.10375463	     16.07207547	     16.07207547	     17.62451162	     -0.65832902	     -1.70145897	     24.70787807	     -5.73052016	      2.47703140	     23.90403117	     23.90403117	      7.33145851	     -6.96123806	     -2.29203281	     -7.35948524	      1.96368458	      4.76631947	     53.35071900	    -16.04611084	     -6.25542186	     95.55624261	     44.59313897	      0.00000000	      0.00000000	     -3.61186708	    -12.22316501	     14.47771603	     31.26513675	     45.03900813	      0.00000000	      0.00000000
     23.15414286	     -3.51037119	     -4.03170291	      5.01816118	      0.96652405	      0.92499914	      0.47830379	     -1.10179463	     -1.61826117	    -11.84604577	     16.62245598	     16.62245598	     17.20600497	     -0.49272743	     -1.59396213	     24.29357270	     -5.70368838	      2.11429529	     24.02214490	     24.02214490	      7.78419469	     -7.23522918	     -2.44196619	     -7.47492712	      2.01972266	      4.52707052	     51.08138848	    -15.43662082	     -6.17419900	     94.80030128	     44.60900264	      0.00000000	      0.00000000	     -2.02684774	    -12.41151374	     14.15360503	     31.51364428	     45.11123864	      0.00000000	      0.00000000
     23.17600000	     -3.66701264	     -4.13016334	      4.49710184	      0.96661835	      0.92580392	      0.47372491	     -0.53460570	     -2.07335165	    -11.64794716	     17.73150230	     17.73150230	     17.01643817	     -0.33328440	     -0.98432529	     23.98392354	     -5.67004975	      1.63194595	     23.96308079	     23.96308079	      8.14529663	     -7.30037603	     -2.55178634	     -7.35899836	      1.96657236	      4.69417210	     48.32481130	    -14.81457693	     -7.82317301	     93.33105439	     44.72969885	      0.00000000	      0.00000000	      0.44281746	    -11.99213015	     12.26294537	     30.06497346	     45.43440792	      0.00000000	      0.00000000
     23.19785714	     -3.59939671	     -4.36134657	      4.04813010	      0.96681524	      0.92696211	      0.46926988	     -0.23378053	     -2.32206081	    -11.44625327	     18.72168532	     18.72168532	     16.43386512	     -0.37017599	     -0.98685219	     23.42144968	     -5.77087358	      1.27989750	     23.85248448	     23.85248448	      8.52622406	     -7.38274287	     -2.66592021	     -7.59896708	      2.14570133	      4.21158753	     45.54600670	    -14.22204539	     -7.44752222	     92.33451645	     44.74022683	      0.00000000	      0.00000000	      2.05990283	    -12.21176622	     12.06965836	     30.53204120	     45.48749933	      0.00000000	      0.00000000
     23.21971429	     -3.64709669	     -4.48908063	      3.58837372	      0.96690592	      0.92799086	      0.46491783	      0.57091052	     -2.75666733	    -11.16545288	     20.43569926	     20.43569926	     15.83411646	     -0.74124676	     -1.18152384	     22.89910241	     -5.78320740	      0.76296410	     23.58173464	     23.58173464	      8.83601979	     -7.24957555	     -2.79632347	     -7.62057518	      2.16181079	      3.90660751	     42.24718767	    -13.89512746	     -7.29180411	     90.64522035	     44.77907310	      0.00000000	      0.00000000	      3.75948786	    -12.38235175	     11.83899601	     30.94232607	     45.54666107	      0.00000000	      0.00000000
